# xmcd
#
# Track frame offsets: 
#        183
#        3268
#        31670
#        51065
#        75183
#        93020
#        117298
#        122265
#        139940
#        172658
#        174168
#        196580
#        214858
#        231295
#        242783
#        268970
#        283105
#        297395
#
# Disc length: 4302 seconds
#
# Revision: 3
# Processed by: cddbd v1.5.2PL0 Copyright (c) Steve Scherf et al.
# Submitted via: ExactAudioCopy v0.99pb5
#
DISCID=e410cc12
DTITLE=גידי גוב - דרך ארץ הופעה
DYEAR=1988
DGENRE=blues
TTITLE0=ערב טוב
TTITLE1=דרך ארץ
TTITLE2=טוב שבאת
TTITLE3=ג'וקים - מעבר
TTITLE4=כלים שלובים
TTITLE5=ילד מזדקן
TTITLE6=לידיה - הביוגרפיה
TTITLE7=לידיה הלוהטת
TTITLE8=גן סגור
TTITLE9=מציג: רמי קליינשטיין
TTITLE10=הניחי לי
TTITLE11=יורם
TTITLE12=מייקל ג'קסון - מעבר
TTITLE13=סימן שאתה צעיר
TTITLE14=שלל שרב
TTITLE15=יש אי-שם
TTITLE16=ככה את רצית אותי
TTITLE17=יו-יה
EXTD=
EXTT0=
EXTT1=
EXTT2=
EXTT3=
EXTT4=
EXTT5=
EXTT6=
EXTT7=
EXTT8=
EXTT9=
EXTT10=
EXTT11=
EXTT12=
EXTT13=
EXTT14=
EXTT15=
EXTT16=
EXTT17=
PLAYORDER=
